<svg xmlns="http://www.w3.org/2000/svg" width="920.24" height="537.22" version="1.1" viewBox="0 0 243.48 142.14"><g transform="matrix(1.8607 0 0 1.8607 -38.646 -131.07)" stroke-width=".53742"><path d="m106.78 70.443a25.888 26.878 0 0 0-23.237 15.105 14.995 15.569 0 0 0-13.403-8.5974 14.995 15.569 0 0 0-14.42 11.355 25.888 26.878 0 0 0-9.0625-1.7358 25.888 26.878 0 0 0-25.888 26.878 25.888 26.878 0 0 0 25.888 26.878 25.888 26.878 0 0 0 9.7937-2.0185 41.449 26.878 0 0 0 30.241 8.5261 41.449 26.878 0 0 0 25.999-5.9573 25.888 26.878 0 0 0 13.045 3.6938 25.888 26.878 0 0 0 25.888-26.878 25.888 26.878 0 0 0-19.569-26.031 25.888 26.878 0 0 0-25.275-21.218z" fill="#fff"/><path d="m107.99 89.682a25.888 26.878 0 0 0-23.237 15.105 14.995 15.569 0 0 0-13.403-8.5974 14.995 15.569 0 0 0-14.42 11.355 25.888 26.878 0 0 0-9.0625-1.7358 25.888 26.878 0 0 0-24.657 18.791 25.888 26.878 0 0 0 23.526 15.726 25.888 26.878 0 0 0 9.7937-2.0185 41.449 26.878 0 0 0 30.241 8.5261 41.449 26.878 0 0 0 25.999-5.9573 25.888 26.878 0 0 0 13.045 3.6938 25.888 26.878 0 0 0 24.652-18.772 25.888 26.878 0 0 0-17.2-14.898 25.888 26.878 0 0 0-25.275-21.218z" fill="#ececec"/></g></svg>