<svg xmlns="http://www.w3.org/2000/svg" enable-background="new" version="1.1" viewBox="0 0 539.97 299.99">
 <text x="86.717247" y="119.88532" fill="#ffffff" font-family="'-apple-system', BlinkMacSystemFont, 'Segoe UI', Roboto, Oxygen-Sans, Ubuntu, Cantarell, 'Helvetica Neue', sans-serif" font-size="19.863px" font-weight="300" letter-spacing="0px" stroke-width="2.4828" word-spacing="0px" style="line-height:1.25" xml:space="preserve"><tspan x="86.717247" y="138.27194" font-family="'-apple-system', BlinkMacSystemFont, 'Segoe UI', Roboto, Oxygen-Sans, Ubuntu, Cantarell, 'Helvetica Neue', sans-serif" font-size="13.242px" font-weight="300" stroke-width="2.4828" style="line-height:0"/></text>
 <g transform="translate(-112.99 140.37)" opacity=".99">
  <text x="13.86202" y="253.8631" fill="#000000" font-family="'-apple-system', BlinkMacSystemFont, 'Segoe UI', Roboto, Oxygen-Sans, Ubuntu, Cantarell, 'Helvetica Neue', sans-serif" font-size="5.3333px" font-weight="300" letter-spacing="0px" word-spacing="0px" style="line-height:1.25" xml:space="preserve"><tspan x="13.86202" y="258.80008"/></text>
 </g>
 <text x="412.58386" y="128.15012" fill="#ffffff" font-family="'-apple-system', BlinkMacSystemFont, 'Segoe UI', Roboto, Oxygen-Sans, Ubuntu, Cantarell, 'Helvetica Neue', sans-serif" font-size="19.863px" font-weight="300" letter-spacing="0px" stroke-width="2.4828" word-spacing="0px" style="line-height:1.25" xml:space="preserve"><tspan x="412.58386" y="146.53674" font-family="'-apple-system', BlinkMacSystemFont, 'Segoe UI', Roboto, Oxygen-Sans, Ubuntu, Cantarell, 'Helvetica Neue', sans-serif" font-size="13.242px" font-weight="300" stroke-width="2.4828" style="line-height:0"/></text>
 <text x="420.51859" y="119.88532" fill="#ffffff" font-family="'-apple-system', BlinkMacSystemFont, 'Segoe UI', Roboto, Oxygen-Sans, Ubuntu, Cantarell, 'Helvetica Neue', sans-serif" font-size="19.863px" font-weight="300" letter-spacing="0px" stroke-width="2.4828" word-spacing="0px" style="line-height:1.25" xml:space="preserve"><tspan x="420.51859" y="138.27194" font-family="'-apple-system', BlinkMacSystemFont, 'Segoe UI', Roboto, Oxygen-Sans, Ubuntu, Cantarell, 'Helvetica Neue', sans-serif" font-size="13.242px" font-weight="300" stroke-width="2.4828" style="line-height:0"/></text>
 <path d="m470.76 1.2116 1.0566 12.189a137.28 137.28 0 0 1 0.0215-2e-3zm-25.641 4.5293 3.1289 11.711a137.28 137.28 0 0 1 0.0176-0.0078zm-24.469 8.9102 5.1504 11.059a137.28 137.28 0 0 1 0.0176-0.0059zm-22.547 13.021 7.0234 10.047a137.28 137.28 0 0 1 0.0176-0.01367zm-19.953 16.738 8.6406 8.6543a137.28 137.28 0 0 1 0.0137-0.01563zm-16.721 19.949 9.9141 6.9551a137.28 137.28 0 0 1 0.0117-0.02148zm-13.014 22.551 11.062 5.1699a137.28 137.28 0 0 1 0.01-0.01953zm-8.8965 24.473 11.842 3.1797a137.28 137.28 0 0 1 6e-3 -0.0215zm-4.5215 25.639 12.121 1.0684a137.28 137.28 0 0 1 2e-3 -0.0215zm12.188 24.959-12.188 1.0801 12.189-1.0566a137.28 137.28 0 0 1-2e-3 -0.0234zm4.0527 23.57-11.709 3.1523 11.715-3.1309a137.28 137.28 0 0 1-6e-3 -0.0215zm8.2656 22.449-11.049 5.168 11.061-5.1465a137.28 137.28 0 0 1-0.0117-0.0215zm11.998 20.672-10.031 7.041 10.043-7.0234a137.28 137.28 0 0 1-0.0117-0.0176zm15.34 18.328-8.6328 8.6562 8.6484-8.6426a137.28 137.28 0 0 1-0.0137-0.0137zm18.25 15.465-6.9356 9.9258 6.9551-9.916a137.28 137.28 0 0 1-0.0195-0.01zm20.762 11.869-5.1445 11.068 5.1641-11.059a137.28 137.28 0 0 1-0.0195-0.01zm22.48 8.127-3.1602 11.844 3.1797-11.842a137.28 137.28 0 0 1-0.0195-2e-3zm23.551 4.2363a137.28 137.28 0 0 1-0.0215 2e-3l-1.0469 12.123z" fill="#fffbfb" stroke="#fff" stroke-linecap="round" stroke-linejoin="round" stroke-opacity=".19854"/>
 <path d="m483.78 0.62566-0.0137 16.553a132.85 132.85 0 0 1 0.0312-2e-3zm-25.939 2.2734 2.877 16.379a132.85 132.85 0 0 1 0.0274-0.0039zm-25.15 6.7422 5.6953 15.684a132.85 132.85 0 0 1 0.0312-0.01172zm-23.598 11.01 8.3184 14.43a132.85 132.85 0 0 1 0.0293-0.01563zm-21.33 14.938 10.625 12.676a132.85 132.85 0 0 1 0.0215-0.01758zm-18.412 18.412 12.736 10.705a132.85 132.85 0 0 1 0.0176-0.02344zm-14.93 21.332 14.445 8.3516a132.85 132.85 0 0 1 0.0137-0.02539zm-10.982 23.598 15.594 5.6895a132.85 132.85 0 0 1 8e-3 -0.0293zm-6.7324 25.154 16.408 2.9023a132.85 132.85 0 0 1 6e-3 -0.0273zm14.271 25.92-16.551 0.0176 16.555 0.01a132.85 132.85 0 0 1-4e-3 -0.0273zm2.0879 23.045-16.371 2.9082 16.377-2.875a132.85 132.85 0 0 1-6e-3 -0.0332zm6.043 22.336-15.672 5.7207 15.684-5.6953a132.85 132.85 0 0 1-0.0117-0.0254zm9.752 20.973-14.414 8.3418 14.432-8.3184a132.85 132.85 0 0 1-0.0176-0.0234zm13.182 19.023-12.658 10.645 12.678-10.623a132.85 132.85 0 0 1-0.0195-0.0215zm16.436 16.295-10.682 12.756 10.701-12.736a132.85 132.85 0 0 1-0.0195-0.0195zm18.975 13.227-8.3262 14.459 8.3516-14.447a132.85 132.85 0 0 1-0.0254-0.0117zm20.936 9.8555-5.6621 15.605 5.6914-15.598a132.85 132.85 0 0 1-0.0293-8e-3zm22.365 5.9277-2.877 16.408 2.9062-16.402a132.85 132.85 0 0 1-0.0293-6e-3zm23.072 2.1211a132.85 132.85 0 0 1-0.0273 6e-3l0.0176 16.551z" fill="none" stroke="#fff" stroke-linecap="round" stroke-linejoin="round" stroke-opacity=".19731"/>
 <g fill="#fff" font-family="'-apple-system', BlinkMacSystemFont, 'Segoe UI', Roboto, Oxygen-Sans, Ubuntu, Cantarell, 'Helvetica Neue', sans-serif" font-weight="300" letter-spacing="0px" stroke-width="6.0619" word-spacing="0px">
  <g fill-opacity=".50458">
   <g font-size="32.33px">
    <text transform="rotate(-.85)" x="387.58875" y="112.16953" enable-background="new" style="line-height:1.25" xml:space="preserve"><tspan x="387.58875" y="112.16953" fill="#ffffff" fill-opacity=".50458" font-family="'-apple-system', BlinkMacSystemFont, 'Segoe UI', Roboto, Oxygen-Sans, Ubuntu, Cantarell, 'Helvetica Neue', sans-serif" font-weight="300" stroke-width="6.0619" text-align="center" text-anchor="middle">30</tspan></text>
    <text transform="rotate(-.57)" x="393.76328" y="256.12094" enable-background="new" style="line-height:1.25" xml:space="preserve"><tspan x="393.76328" y="256.12094" fill="#ffffff" fill-opacity=".50458" font-family="'-apple-system', BlinkMacSystemFont, 'Segoe UI', Roboto, Oxygen-Sans, Ubuntu, Cantarell, 'Helvetica Neue', sans-serif" font-weight="300" letter-spacing="-4.196px" stroke-width="6.0619">10</tspan></text>
    <text transform="rotate(-.63)" x="354.72375" y="186.40331" enable-background="new" style="line-height:1.25" xml:space="preserve"><tspan x="354.72375" y="186.40331" fill="#ffffff" fill-opacity=".50458" font-family="'-apple-system', BlinkMacSystemFont, 'Segoe UI', Roboto, Oxygen-Sans, Ubuntu, Cantarell, 'Helvetica Neue', sans-serif" font-weight="300" letter-spacing="-.94348px" stroke-width="6.0619">20</tspan></text>
    <text transform="rotate(1.956)" x="429.66553" y="39.435848" enable-background="new" style="line-height:1.25" xml:space="preserve"><tspan x="429.66553" y="39.435848" fill="#ffffff" fill-opacity=".50458" font-family="'-apple-system', BlinkMacSystemFont, 'Segoe UI', Roboto, Oxygen-Sans, Ubuntu, Cantarell, 'Helvetica Neue', sans-serif" font-weight="300" letter-spacing="-1.6883px" stroke-width="6.0619">40</tspan></text>
    <text transform="rotate(-.57)" x="471.66229" y="282.04977" enable-background="new" style="line-height:1.25" xml:space="preserve"><tspan x="471.66229" y="282.04977" fill="#ffffff" fill-opacity=".50458" font-family="'-apple-system', BlinkMacSystemFont, 'Segoe UI', Roboto, Oxygen-Sans, Ubuntu, Cantarell, 'Helvetica Neue', sans-serif" font-weight="300" letter-spacing="-4.196px" stroke-width="6.0619">0</tspan></text>
   </g>
   <g font-size="20.5px">
    <text transform="rotate(-.57)" x="434.14883" y="273.78049" enable-background="new" style="line-height:1.25" xml:space="preserve"><tspan x="434.14883" y="273.78049" fill="#ffffff" fill-opacity=".50458" font-family="'-apple-system', BlinkMacSystemFont, 'Segoe UI', Roboto, Oxygen-Sans, Ubuntu, Cantarell, 'Helvetica Neue', sans-serif" font-weight="300" letter-spacing="-2.6606px" stroke-width="6.0619">5</tspan></text>
    <text transform="rotate(-.57)" x="368.87915" y="223.67068" enable-background="new" style="line-height:1.25" xml:space="preserve"><tspan x="368.87915" y="223.67068" fill="#ffffff" fill-opacity=".50458" font-family="'-apple-system', BlinkMacSystemFont, 'Segoe UI', Roboto, Oxygen-Sans, Ubuntu, Cantarell, 'Helvetica Neue', sans-serif" font-weight="300" letter-spacing="-2.6606px" stroke-width="6.0619">15</tspan></text>
    <text transform="rotate(-.57)" x="356.20081" y="140.87766" enable-background="new" style="line-height:1.25" xml:space="preserve"><tspan x="356.20081" y="140.87766" fill="#ffffff" fill-opacity=".50458" font-family="'-apple-system', BlinkMacSystemFont, 'Segoe UI', Roboto, Oxygen-Sans, Ubuntu, Cantarell, 'Helvetica Neue', sans-serif" font-weight="300" letter-spacing="-2.6606px" stroke-width="6.0619">25</tspan></text>
    <text transform="rotate(-.57)" x="397.78909" y="71.381081" enable-background="new" style="line-height:1.25" xml:space="preserve"><tspan x="397.78909" y="71.381081" fill="#ffffff" fill-opacity=".50458" font-family="'-apple-system', BlinkMacSystemFont, 'Segoe UI', Roboto, Oxygen-Sans, Ubuntu, Cantarell, 'Helvetica Neue', sans-serif" font-weight="300" letter-spacing="-2.6606px" stroke-width="6.0619">35</tspan></text>
    <text transform="rotate(-.57)" x="474.15717" y="42.222847" enable-background="new" style="line-height:1.25" xml:space="preserve"><tspan x="474.15717" y="42.222847" fill="#ffffff" fill-opacity=".50458" font-family="'-apple-system', BlinkMacSystemFont, 'Segoe UI', Roboto, Oxygen-Sans, Ubuntu, Cantarell, 'Helvetica Neue', sans-serif" font-weight="300" letter-spacing="-2.6606px" stroke-width="6.0619">45</tspan></text>
   </g>
  </g>
  <text transform="rotate(.49611)" x="513.96155" y="86.496727" enable-background="new" fill-opacity=".50087" font-size="25.105px" text-align="end" text-anchor="end" style="line-height:1.25" xml:space="preserve"><tspan x="494.27924" y="86.496727" fill="#ffffff" fill-opacity=".50087" font-family="'-apple-system', BlinkMacSystemFont, 'Segoe UI', Roboto, Oxygen-Sans, Ubuntu, Cantarell, 'Helvetica Neue', sans-serif" font-weight="300" stroke-width="6.0619" text-align="end" text-anchor="end">kt</tspan></text>
 </g>
</svg>